<?xml version="1.0" encoding="UTF-8" standalone="no"?>
<!DOCTYPE svg PUBLIC "-//W3C//DTD SVG 1.1//EN" "http://www.w3.org/Graphics/SVG/1.1/DTD/svg11.dtd">
<svg version="1.1" xmlns="http://www.w3.org/2000/svg" xmlns:xlink="http://www.w3.org/1999/xlink" preserveAspectRatio="xMidYMid meet" viewBox="0 0 562 558" width="562" height="558">
  <defs>
    <path d="M561.79 278.97C561.79 432.84 436.06 557.76 281.2 557.76C126.34 557.76 0.62 432.84 0.62 278.97C0.62 125.1 126.34 0.18 281.2 0.18C436.06 0.18 561.79 125.1 561.79 278.97Z" id="circle"></path>
    <clipPath id="circleClip">
      <use xlink:href="#circle" opacity="1"></use>
    </clipPath>
    <path d="M438.94 278.97C438.94 372.47 426.63 434.8 345.45 497.13C332.98 497.13 233.25 497.13 220.79 497.13C144.08 442.3 127.29 372.47 127.29 278.97C189.62 278.97 407.78 278.97 438.94 278.97Z" id="cup"></path>
    <path d="M282.89 230.91C300.92 251.66 278.15 270.34 278.15 270.34C278.15 270.34 323.93 246.71 302.91 217.12C283.27 189.52 268.21 175.81 349.73 128.53C349.73 128.53 221.77 160.49 282.89 230.91" id="small_steam"></path>
    <path d="M302.91 52.19C302.91 52.19 341.74 91.04 266.07 150.78C205.39 198.7 252.23 226.02 266.05 257.24C230.62 225.28 204.63 197.15 222.07 170.97C247.67 132.53 318.58 113.9 302.91 52.19" id="large_steam"></path>
    <path d="M322.14 311.93L323.01 312.04L323.86 312.18L324.69 312.37L325.5 312.59L326.29 312.86L327.06 313.17L327.8 313.52L328.53 313.91L329.26 314.36L329.97 314.85L330.64 315.39L331.3 315.97L331.92 316.58L332.52 317.24L333.09 317.94L333.64 318.68L334.16 319.45L334.65 320.27L335.12 321.12L335.56 322L335.97 322.92L336.36 323.88L336.71 324.87L337.05 325.89L337.35 326.95L337.63 328.03L337.88 329.15L338.11 330.3L338.31 331.48L338.48 332.68L338.62 333.92L338.74 335.18L338.83 336.47L338.89 337.79L338.93 339.13L338.94 340.5L338.92 341.89L338.87 343.3L338.8 344.74L338.7 346.2L338.57 347.68L338.42 349.18L338.24 350.7L338.03 352.24L337.79 353.8L337.53 355.38L337.23 356.97L336.91 358.58L336.91 358.61L336.9 358.65L336.89 358.69L336.88 358.73L336.87 358.78L336.86 358.84L336.84 358.9L336.83 358.96L336.8 359.09L336.79 359.17L336.77 359.24L336.75 359.32L336.73 359.41L336.72 359.5L336.7 359.59L336.68 359.68L336.65 359.78L336.63 359.88L336.61 359.98L336.59 360.09L336.56 360.2L336.54 360.31L336.51 360.43L336.49 360.55L336.46 360.67L336.43 360.79L336.4 360.91L336.37 361.04L336.34 361.17L336.31 361.31L336.28 361.44L336.25 361.58L336.22 361.71L336.18 361.86L336.15 362L336.11 362.14L336.08 362.29L336.04 362.43L336.01 362.58L336.05 362.6L336.11 362.61L336.17 362.63L336.23 362.65L336.31 362.67L336.39 362.7L336.47 362.72L336.56 362.75L336.76 362.81L336.87 362.84L336.98 362.88L337.1 362.91L337.23 362.95L337.35 362.99L337.49 363.03L337.63 363.07L337.77 363.11L337.92 363.16L338.07 363.2L338.23 363.25L338.39 363.3L338.55 363.35L338.72 363.4L338.89 363.46L339.07 363.51L339.25 363.57L339.44 363.63L339.62 363.69L339.81 363.75L340.01 363.81L340.21 363.87L340.4 363.94L340.61 364.01L340.81 364.07L341.02 364.14L341.23 364.21L341.44 364.29L341.66 364.36L341.88 364.43L343.34 364.95L344.78 365.48L346.19 366.02L347.57 366.58L348.93 367.15L350.25 367.73L351.55 368.33L352.81 368.93L354.05 369.55L355.25 370.18L356.43 370.83L357.57 371.48L358.68 372.14L359.75 372.81L360.79 373.5L361.8 374.19L362.77 374.89L363.71 375.6L364.61 376.32L365.48 377.05L366.3 377.78L367.09 378.53L367.85 379.28L368.56 380.03L369.24 380.8L369.87 381.57L370.47 382.34L371.02 383.12L371.53 383.91L372.01 384.7L372.43 385.5L372.82 386.3L373.16 387.1L373.46 387.91L373.72 388.72L373.93 389.54L374.09 390.35L374.21 391.17L374.28 391.99L374.3 392.82L374.28 393.68L374.2 394.53L374.07 395.39L373.9 396.24L373.68 397.09L373.4 397.94L373.09 398.79L372.72 399.63L372.31 400.46L371.85 401.3L371.35 402.12L370.8 402.95L370.21 403.77L369.57 404.58L368.9 405.38L368.18 406.18L367.41 406.97L366.61 407.76L365.77 408.54L364.89 409.3L363.97 410.06L363.01 410.82L362.01 411.56L360.97 412.29L359.9 413.01L358.79 413.72L357.65 414.43L356.47 415.12L355.25 415.8L354 416.46L352.72 417.12L351.41 417.76L350.06 418.39L348.69 419L347.28 419.61L345.84 420.19L344.37 420.77L342.87 421.32L341.35 421.87L339.79 422.39L339.77 422.4L339.73 422.41L339.7 422.42L339.66 422.44L339.62 422.45L339.58 422.46L339.53 422.48L339.48 422.5L339.42 422.51L339.3 422.55L339.24 422.57L339.17 422.6L339.1 422.62L339.03 422.64L338.95 422.67L338.87 422.69L338.79 422.72L338.71 422.74L338.62 422.77L338.53 422.8L338.44 422.83L338.34 422.86L338.25 422.89L338.15 422.92L338.04 422.95L337.94 422.99L337.83 423.02L337.72 423.05L337.61 423.09L337.5 423.12L337.39 423.16L337.27 423.19L337.15 423.23L337.03 423.27L336.91 423.3L336.78 423.34L336.66 423.38L336.53 423.42L336.4 423.45L336.41 423.49L336.42 423.54L336.43 423.59L336.45 423.64L336.46 423.71L336.48 423.77L336.49 423.84L336.51 423.92L336.55 424.09L336.57 424.18L336.6 424.27L336.62 424.37L336.65 424.47L336.67 424.58L336.7 424.69L336.72 424.81L336.75 424.93L336.78 425.05L336.81 425.18L336.84 425.31L336.87 425.44L336.91 425.58L336.94 425.72L336.97 425.87L337 426.01L337.04 426.16L337.07 426.31L337.11 426.47L337.14 426.63L337.18 426.79L337.21 426.95L337.25 427.12L337.28 427.28L337.32 427.45L337.35 427.62L337.39 427.8L337.42 427.97L337.46 428.15L337.49 428.33L337.79 429.89L338.06 431.43L338.3 432.95L338.51 434.46L338.7 435.96L338.86 437.43L338.99 438.89L339.1 440.33L339.18 441.75L339.23 443.15L339.26 444.52L339.26 445.88L339.23 447.21L339.17 448.52L339.09 449.81L338.99 451.07L338.85 452.3L338.69 453.51L338.51 454.69L338.29 455.85L338.06 456.97L337.79 458.07L337.5 459.13L337.19 460.17L336.84 461.17L336.48 462.15L336.08 463.08L335.66 463.99L335.22 464.86L334.75 465.7L334.25 466.5L333.73 467.26L333.19 467.99L332.62 468.68L332.02 469.33L331.4 469.94L330.75 470.51L330.08 471.04L329.38 471.53L328.66 471.98L327.94 472.37L327.2 472.72L326.43 473.03L325.65 473.3L324.85 473.53L324.02 473.72L323.18 473.87L322.32 473.98L321.45 474.06L320.55 474.09L319.64 474.09L318.71 474.05L317.77 473.98L316.81 473.86L315.84 473.71L314.86 473.52L313.86 473.3L312.84 473.04L311.82 472.74L310.78 472.41L309.74 472.05L308.68 471.64L307.61 471.21L306.53 470.74L305.44 470.23L304.35 469.69L303.24 469.12L302.13 468.51L301.01 467.87L299.88 467.2L298.75 466.5L297.62 465.76L296.47 464.99L295.33 464.19L294.18 463.36L293.02 462.49L291.87 461.6L290.71 460.68L289.55 459.72L288.38 458.73L288.34 458.7L288.3 458.66L288.25 458.61L288.19 458.56L288.13 458.51L288.06 458.45L287.99 458.38L287.91 458.32L287.83 458.24L287.74 458.17L287.65 458.09L287.56 458L287.45 457.91L287.35 457.82L287.24 457.72L287.13 457.62L287.01 457.52L286.89 457.41L286.76 457.3L286.63 457.19L286.5 457.07L286.37 456.95L286.23 456.82L286.08 456.69L285.94 456.56L285.79 456.42L285.64 456.29L285.48 456.15L285.33 456L285.17 455.85L285.01 455.7L284.84 455.55L284.67 455.4L284.51 455.24L284.33 455.08L284.16 454.91L283.99 454.75L283.81 454.58L283.63 454.41L283.45 454.24L283.42 454.27L283.39 454.3L283.35 454.33L283.31 454.38L283.26 454.42L283.21 454.47L283.15 454.52L283.09 454.58L282.97 454.7L282.9 454.77L282.82 454.84L282.75 454.91L282.67 454.98L282.58 455.06L282.5 455.15L282.41 455.23L282.31 455.32L282.22 455.41L282.12 455.5L282.02 455.6L281.91 455.69L281.81 455.79L281.7 455.89L281.59 456L281.47 456.1L281.35 456.21L281.24 456.32L281.11 456.43L280.99 456.55L280.86 456.66L280.74 456.78L280.61 456.89L280.47 457.01L280.34 457.13L280.21 457.25L280.07 457.37L279.93 457.5L279.79 457.62L279.65 457.74L278.45 458.78L277.25 459.78L276.04 460.75L274.84 461.69L273.64 462.6L272.44 463.48L271.25 464.32L270.05 465.13L268.86 465.91L267.68 466.65L266.5 467.36L265.32 468.03L264.15 468.68L262.99 469.28L261.84 469.85L260.69 470.39L259.56 470.89L258.43 471.36L257.31 471.79L256.21 472.18L255.11 472.53L254.03 472.85L252.96 473.13L251.91 473.38L250.87 473.58L249.84 473.75L248.83 473.88L247.84 473.97L246.86 474.02L245.9 474.03L244.96 474L244.04 473.93L243.14 473.82L242.25 473.67L241.39 473.48L240.55 473.24L239.74 472.97L238.94 472.65L238.17 472.29L237.42 471.89L236.72 471.46L236.05 470.99L235.4 470.48L234.77 469.94L234.17 469.36L233.6 468.74L233.05 468.09L232.52 467.4L232.02 466.68L231.54 465.92L231.08 465.13L230.65 464.31L230.25 463.45L229.87 462.57L229.52 461.65L229.19 460.7L228.88 459.72L228.6 458.72L228.35 457.68L228.12 456.62L227.91 455.53L227.73 454.41L227.57 453.27L227.44 452.1L227.34 450.9L227.26 449.68L227.2 448.44L227.17 447.17L227.17 445.88L227.19 444.57L227.23 443.24L227.3 441.89L227.4 440.51L227.52 439.12L227.67 437.71L227.84 436.28L228.04 434.83L228.26 433.36L228.51 431.88L228.78 430.38L228.79 430.33L228.8 430.27L228.82 430.2L228.83 430.13L228.85 430.05L228.87 429.96L228.89 429.87L228.91 429.76L228.93 429.66L228.95 429.54L228.97 429.42L229 429.3L229.03 429.17L229.05 429.03L229.08 428.89L229.11 428.74L229.14 428.59L229.18 428.43L229.21 428.26L229.25 428.09L229.28 427.92L229.32 427.74L229.36 427.56L229.4 427.37L229.44 427.18L229.48 426.98L229.53 426.78L229.57 426.58L229.62 426.37L229.67 426.16L229.72 425.95L229.77 425.73L229.82 425.51L229.87 425.28L229.92 425.05L229.98 424.82L230.04 424.59L230.09 424.35L230.15 424.11L230.21 423.87L230.17 423.86L230.13 423.84L230.08 423.83L230.02 423.81L229.96 423.79L229.89 423.77L229.82 423.75L229.74 423.73L229.66 423.71L229.58 423.68L229.49 423.65L229.39 423.63L229.29 423.6L229.19 423.57L229.08 423.53L228.97 423.5L228.85 423.47L228.73 423.43L228.61 423.39L228.48 423.35L228.35 423.31L228.21 423.27L228.07 423.23L227.93 423.19L227.79 423.14L227.64 423.1L227.49 423.05L227.33 423L227.17 422.95L227.01 422.9L226.85 422.85L226.69 422.79L226.52 422.74L226.35 422.68L226.17 422.63L226 422.57L225.82 422.51L225.64 422.45L225.46 422.39L225.28 422.33L223.79 421.81L222.32 421.27L220.87 420.71L219.46 420.14L218.07 419.55L216.72 418.95L215.39 418.33L214.09 417.71L212.82 417.06L211.59 416.41L210.38 415.74L209.21 415.06L208.07 414.37L206.96 413.66L205.89 412.95L204.85 412.23L203.85 411.49L202.89 410.75L201.96 410L201.07 409.23L200.21 408.46L199.39 407.69L198.62 406.9L197.88 406.11L197.18 405.31L196.52 404.5L195.91 403.69L195.34 402.88L194.8 402.06L194.32 401.23L193.87 400.4L193.47 399.57L193.11 398.73L192.8 397.89L192.54 397.05L192.32 396.2L192.15 395.36L192.03 394.51L191.96 393.66L191.93 392.82L191.96 392L192.02 391.18L192.14 390.36L192.3 389.55L192.5 388.74L192.75 387.93L193.04 387.13L193.37 386.33L193.74 385.53L194.16 384.74L194.62 383.95L195.12 383.17L195.66 382.39L196.23 381.62L196.85 380.85L197.51 380.09L198.2 379.34L198.94 378.59L199.71 377.86L200.51 377.13L201.35 376.4L202.23 375.69L203.15 374.98L204.09 374.28L205.08 373.6L206.09 372.92L207.14 372.25L208.22 371.59L209.34 370.94L210.48 370.3L211.66 369.68L212.87 369.06L214.1 368.46L215.37 367.87L216.67 367.29L217.99 366.72L219.35 366.17L220.73 365.63L222.14 365.1L223.57 364.59L223.73 364.54L223.9 364.48L224.06 364.42L224.22 364.37L224.39 364.31L224.55 364.26L224.71 364.2L224.88 364.15L225.04 364.09L225.21 364.04L225.37 363.98L225.54 363.93L225.71 363.87L225.87 363.82L226.04 363.77L226.21 363.71L226.37 363.66L226.54 363.6L226.71 363.55L226.88 363.5L227.05 363.44L227.22 363.39L227.39 363.34L227.56 363.29L227.73 363.23L227.9 363.18L228.07 363.13L228.24 363.08L228.41 363.03L228.58 362.98L228.76 362.92L228.93 362.87L229.1 362.82L229.28 362.77L229.45 362.72L229.62 362.67L229.8 362.62L229.97 362.57L230.15 362.52L230.32 362.47L230.31 362.42L230.3 362.37L230.28 362.3L230.27 362.24L230.25 362.16L230.23 362.08L230.21 361.99L230.19 361.9L230.16 361.8L230.14 361.7L230.11 361.59L230.08 361.47L230.05 361.35L230.02 361.23L229.99 361.09L229.96 360.96L229.93 360.82L229.89 360.67L229.86 360.52L229.82 360.36L229.78 360.2L229.75 360.04L229.71 359.87L229.67 359.69L229.63 359.52L229.59 359.33L229.54 359.15L229.5 358.96L229.46 358.77L229.42 358.57L229.37 358.37L229.33 358.17L229.29 357.96L229.24 357.75L229.2 357.54L229.15 357.32L229.11 357.1L229.06 356.88L229.02 356.66L228.97 356.43L228.69 354.9L228.42 353.39L228.19 351.9L227.98 350.43L227.79 348.97L227.63 347.53L227.5 346.11L227.39 344.71L227.31 343.33L227.25 341.97L227.22 340.63L227.21 339.32L227.23 338.03L227.27 336.76L227.34 335.52L227.44 334.3L227.56 333.11L227.7 331.94L227.87 330.8L228.07 329.68L228.29 328.6L228.54 327.54L228.81 326.52L229.11 325.52L229.43 324.55L229.78 323.62L230.15 322.71L230.55 321.84L230.97 321L231.42 320.2L231.89 319.43L232.39 318.69L232.92 317.99L233.47 317.33L234.04 316.7L234.64 316.11L235.27 315.56L235.92 315.05L236.59 314.58L237.29 314.15L238.05 313.74L238.83 313.37L239.63 313.05L240.46 312.78L241.31 312.55L242.18 312.36L243.07 312.21L243.98 312.1L244.91 312.04L245.86 312.02L246.83 312.04L247.81 312.1L248.82 312.2L249.84 312.35L250.88 312.53L251.93 312.75L252.99 313.01L254.08 313.32L255.17 313.66L256.28 314.03L257.4 314.45L258.53 314.91L259.67 315.4L260.82 315.93L261.99 316.49L263.16 317.1L264.34 317.73L265.53 318.41L266.72 319.12L267.93 319.87L269.13 320.65L270.35 321.46L271.57 322.31L272.79 323.19L274.02 324.11L275.25 325.06L276.48 326.05L277.71 327.06L278.95 328.11L280.18 329.19L280.2 329.21L280.23 329.24L280.26 329.27L280.3 329.3L280.34 329.33L280.38 329.37L280.42 329.41L280.47 329.45L280.57 329.55L280.63 329.6L280.69 329.65L280.75 329.7L280.81 329.76L280.88 329.82L280.95 329.89L281.02 329.95L281.09 330.02L281.17 330.09L281.25 330.16L281.33 330.23L281.41 330.31L281.5 330.39L281.58 330.47L281.67 330.55L281.76 330.63L281.86 330.72L281.95 330.81L282.05 330.89L282.15 330.99L282.25 331.08L282.35 331.17L282.45 331.27L282.55 331.37L282.66 331.47L282.76 331.57L282.87 331.67L282.98 331.77L283.09 331.88L283.2 331.98L283.24 331.95L283.28 331.91L283.33 331.87L283.38 331.82L283.43 331.77L283.49 331.71L283.56 331.65L283.63 331.58L283.7 331.51L283.78 331.44L283.86 331.36L283.94 331.28L284.03 331.2L284.13 331.11L284.23 331.02L284.33 330.92L284.43 330.82L284.54 330.72L284.66 330.61L284.77 330.5L284.89 330.39L285.02 330.28L285.14 330.16L285.27 330.04L285.41 329.92L285.54 329.79L285.68 329.66L285.82 329.53L285.97 329.4L286.12 329.26L286.27 329.13L286.42 328.99L286.58 328.85L286.74 328.7L286.9 328.56L287.06 328.41L287.23 328.27L287.4 328.12L287.57 327.97L287.74 327.82L288.92 326.81L290.1 325.83L291.27 324.88L292.45 323.96L293.62 323.07L294.78 322.21L295.95 321.39L297.11 320.59L298.26 319.83L299.41 319.1L300.55 318.41L301.68 317.74L302.81 317.12L303.93 316.52L305.05 315.96L306.15 315.43L307.24 314.94L308.33 314.48L309.4 314.06L310.46 313.68L311.51 313.33L312.55 313.01L313.58 312.74L314.59 312.49L315.59 312.29L316.57 312.13L317.54 312L318.49 311.91L319.43 311.86L320.35 311.84L321.26 311.87L322.14 311.93ZM326.99 425.84L326.04 426.04L325.1 426.24L324.16 426.43L323.21 426.61L322.27 426.79L321.32 426.96L320.38 427.13L319.43 427.3L318.48 427.46L317.53 427.61L316.58 427.76L315.63 427.9L314.68 428.04L313.73 428.18L312.77 428.31L311.82 428.43L310.86 428.55L309.91 428.66L308.95 428.77L308 428.87L307.04 428.97L306.08 429.07L305.12 429.15L304.17 429.24L303.63 430.02L303.08 430.8L302.54 431.58L301.99 432.36L301.43 433.13L300.87 433.9L300.31 434.67L299.74 435.43L299.17 436.19L298.6 436.95L298.02 437.7L297.44 438.45L296.85 439.2L296.26 439.95L295.67 440.69L295.07 441.43L294.47 442.16L293.86 442.9L293.25 443.63L292.64 444.35L292.02 445.08L291.4 445.8L290.78 446.52L290.15 447.23L289.52 447.94L288.88 448.65L288.94 448.7L289.01 448.77L289.09 448.85L289.19 448.94L289.29 449.03L289.41 449.14L289.53 449.26L289.67 449.39L289.82 449.53L289.97 449.68L290.14 449.83L290.31 449.99L290.49 450.16L290.68 450.34L290.88 450.52L291.08 450.71L291.29 450.9L291.51 451.1L291.74 451.3L291.97 451.51L292.21 451.72L292.45 451.94L292.7 452.16L292.95 452.38L293.2 452.6L293.47 452.83L294.99 454.11L296.5 455.34L298.01 456.49L299.49 457.59L300.97 458.62L302.42 459.59L303.85 460.49L305.26 461.33L306.65 462.1L308.01 462.81L309.35 463.46L310.65 464.04L311.93 464.56L313.17 465.01L314.37 465.39L315.54 465.71L316.67 465.96L317.76 466.15L318.8 466.27L319.8 466.32L320.76 466.31L321.66 466.23L322.52 466.08L323.32 465.86L324.07 465.58L324.76 465.23L325.15 464.91L325.54 464.57L325.91 464.22L326.26 463.86L326.61 463.49L326.94 463.11L327.27 462.72L327.57 462.32L327.87 461.91L328.15 461.49L328.42 461.07L328.68 460.63L328.92 460.19L329.14 459.74L329.36 459.29L329.56 458.83L329.74 458.36L329.91 457.88L330.07 457.4L330.21 456.92L330.33 456.43L330.44 455.93L330.54 455.43L330.62 454.93L330.68 454.42L330.73 453.91L330.86 452.99L330.98 452.06L331.08 451.13L331.17 450.21L331.25 449.28L331.31 448.35L331.37 447.42L331.4 446.49L331.43 445.56L331.44 444.63L331.44 443.7L331.43 442.77L331.4 441.84L331.36 440.91L331.3 439.98L331.24 439.05L331.16 438.12L331.07 437.2L330.96 436.27L330.84 435.35L330.71 434.43L330.56 433.51L330.41 432.59L330.23 431.67L330.05 430.76L329.85 429.84L329.82 429.68L329.79 429.51L329.75 429.34L329.72 429.18L329.68 429.01L329.65 428.84L329.61 428.67L329.58 428.5L329.54 428.34L329.5 428.17L329.47 428L329.43 427.83L329.39 427.66L329.35 427.49L329.31 427.32L329.28 427.15L329.24 426.98L329.2 426.81L329.16 426.64L329.12 426.47L329.08 426.29L329.03 426.12L328.99 425.95L328.95 425.78L328.91 425.6L328.87 425.43L327.93 425.64L326.99 425.84ZM237.73 425.95L237.7 426.06L237.67 426.18L237.64 426.32L237.6 426.47L237.56 426.64L237.52 426.82L237.48 427.01L237.43 427.21L237.38 427.43L237.32 427.65L237.27 427.89L237.21 428.14L237.15 428.4L237.09 428.67L237.03 428.95L236.97 429.24L236.9 429.54L236.84 429.84L236.77 430.16L236.7 430.48L236.64 430.81L236.57 431.14L236.5 431.49L236.43 431.83L236.08 433.8L235.78 435.72L235.53 437.6L235.32 439.43L235.16 441.22L235.05 442.97L234.98 444.66L234.96 446.3L234.98 447.89L235.05 449.43L235.16 450.9L235.3 452.32L235.49 453.69L235.72 454.98L235.99 456.22L236.3 457.39L236.65 458.5L237.03 459.53L237.45 460.5L237.9 461.39L238.39 462.21L238.91 462.95L239.46 463.62L240.05 464.21L240.67 464.71L241.32 465.14L241.8 465.32L242.28 465.48L242.77 465.63L243.26 465.76L243.75 465.87L244.25 465.97L244.75 466.06L245.25 466.12L245.75 466.17L246.25 466.21L246.76 466.23L247.26 466.24L247.76 466.22L248.26 466.2L248.76 466.16L249.26 466.1L249.76 466.02L250.26 465.93L250.75 465.83L251.24 465.71L251.73 465.57L252.21 465.42L252.69 465.25L253.17 465.07L253.64 464.87L254.11 464.66L254.11 464.66L254.69 464.42L255.3 464.16L255.92 463.88L256.55 463.58L257.2 463.26L257.87 462.92L258.55 462.56L259.25 462.18L259.96 461.78L260.69 461.36L261.44 460.92L262.2 460.46L262.98 459.98L263.77 459.48L264.58 458.95L265.4 458.41L266.24 457.85L267.1 457.27L267.97 456.66L268.86 456.04L269.76 455.4L270.68 454.73L271.62 454.05L272.57 453.35L273.54 452.62L274.52 451.88L274.66 451.76L274.79 451.64L274.93 451.52L275.07 451.4L275.2 451.28L275.34 451.15L275.47 451.03L275.61 450.91L275.74 450.79L275.88 450.67L276.01 450.55L276.14 450.42L276.28 450.3L276.41 450.18L276.55 450.05L276.68 449.93L276.81 449.81L276.94 449.68L277.08 449.56L277.21 449.43L277.34 449.31L277.47 449.18L277.6 449.06L277.73 448.93L277.87 448.8L278 448.68L277.35 447.97L276.7 447.27L276.06 446.55L275.42 445.84L274.79 445.12L274.16 444.4L273.53 443.68L272.91 442.95L272.29 442.22L271.68 441.48L271.06 440.75L270.46 440.01L269.85 439.27L269.25 438.52L268.65 437.77L268.06 437.02L267.47 436.26L266.89 435.51L266.31 434.75L265.73 433.98L265.15 433.21L264.58 432.45L264.02 431.67L263.46 430.9L262.9 430.12L262.34 429.34L261.39 429.26L260.44 429.18L259.48 429.1L258.53 429.01L257.58 428.91L256.63 428.81L255.68 428.71L254.73 428.6L253.78 428.48L252.83 428.36L251.89 428.24L250.94 428.11L249.99 427.98L249.05 427.84L248.1 427.69L247.16 427.54L246.22 427.39L245.27 427.23L244.33 427.07L243.39 426.9L242.45 426.72L241.51 426.54L240.57 426.36L239.64 426.17L238.7 425.98L237.77 425.78L237.75 425.86L237.73 425.95ZM293.22 429.93L292.54 429.96L291.74 429.99L290.81 430.02L289.76 430.05L288.61 430.08L287.36 430.11L286.02 430.13L284.61 430.14L283.12 430.15L282.75 430.14L282.22 430.14L281.56 430.13L280.76 430.13L279.85 430.12L278.82 430.11L277.7 430.09L276.49 430.06L275.2 430.03L273.85 429.99L272.45 429.94L273.43 431.23L274.42 432.49L275.41 433.74L276.4 434.98L277.4 436.19L278.4 437.39L279.4 438.56L280.4 439.72L281.41 440.86L282.41 441.98L283.42 443.07L284.45 441.92L285.47 440.76L286.47 439.59L287.47 438.41L288.45 437.22L289.43 436.03L290.39 434.82L291.34 433.6L292.28 432.38L293.21 431.15L294.13 429.9L293.75 429.91L293.22 429.93ZM282.25 363.6L281.82 363.61L281.39 363.61L280.96 363.61L280.53 363.62L280.1 363.62L279.67 363.63L279.24 363.64L278.81 363.64L278.38 363.65L277.95 363.66L277.52 363.67L277.09 363.68L276.66 363.7L276.24 363.71L275.81 363.72L275.38 363.74L274.95 363.75L274.53 363.77L274.1 363.79L273.68 363.8L273.25 363.82L272.83 363.84L272.4 363.86L271.98 363.88L271.56 363.9L271.13 363.93L270.71 363.95L270.29 363.97L269.87 364L269.45 364.02L269.02 364.05L268.6 364.08L268.19 364.11L267.77 364.14L267.35 364.16L266.93 364.2L266.51 364.23L266.44 364.34L266.35 364.47L266.26 364.62L266.15 364.78L266.03 364.96L265.91 365.16L265.77 365.36L265.62 365.58L265.46 365.82L265.3 366.07L265.12 366.33L264.94 366.61L264.75 366.9L264.55 367.2L264.34 367.52L264.13 367.85L263.9 368.19L263.67 368.54L263.44 368.9L263.19 369.28L262.94 369.67L262.69 370.07L262.43 370.48L262.16 370.89L261.89 371.32L261.61 371.76L261.33 372.22L261.04 372.67L260.75 373.14L260.46 373.62L260.16 374.11L259.86 374.61L259.55 375.11L259.24 375.62L258.93 376.14L258.62 376.67L258.31 377.21L257.99 377.75L257.67 378.3L257.67 378.3L249.91 393L250.1 393.39L250.28 393.77L250.47 394.16L250.66 394.54L250.85 394.92L251.04 395.3L251.23 395.69L251.42 396.07L251.61 396.45L251.8 396.83L251.99 397.21L252.19 397.59L252.38 397.97L252.58 398.35L252.77 398.73L252.97 399.11L253.17 399.48L253.37 399.86L253.56 400.24L253.76 400.61L253.96 400.99L254.16 401.37L254.37 401.74L254.57 402.12L254.77 402.49L254.98 402.87L255.18 403.24L255.39 403.61L255.59 403.99L255.8 404.36L256.01 404.73L256.21 405.11L256.42 405.48L256.63 405.85L256.84 406.22L257.06 406.59L257.27 406.96L257.48 407.33L257.69 407.7L257.77 407.82L257.85 407.95L257.94 408.1L258.04 408.27L258.15 408.45L258.27 408.65L258.4 408.87L258.54 409.1L258.68 409.34L258.84 409.6L259 409.87L259.17 410.16L259.35 410.46L259.54 410.77L259.73 411.1L259.94 411.44L260.15 411.79L260.37 412.15L260.6 412.52L260.83 412.9L261.07 413.3L261.32 413.7L261.58 414.12L261.84 414.54L262.12 414.98L262.39 415.42L262.68 415.87L262.97 416.33L263.27 416.8L263.58 417.27L263.89 417.76L264.21 418.24L264.53 418.74L264.86 419.24L265.2 419.75L265.54 420.26L265.89 420.78L266.25 421.31L266.61 421.84L267.02 421.86L267.43 421.89L267.84 421.91L268.25 421.94L268.66 421.96L269.07 421.98L269.49 422.01L269.9 422.03L270.32 422.05L270.73 422.07L271.15 422.09L271.57 422.11L271.99 422.12L272.41 422.14L272.83 422.16L273.25 422.17L273.67 422.19L274.09 422.21L274.52 422.22L274.94 422.23L275.36 422.25L275.79 422.26L276.21 422.27L276.64 422.28L277.07 422.29L277.5 422.3L277.92 422.31L278.35 422.32L278.78 422.32L279.21 422.33L279.65 422.34L280.08 422.34L280.51 422.34L280.94 422.35L281.38 422.35L281.81 422.35L282.25 422.36L282.68 422.36L283.12 422.36L283.56 422.36L283.99 422.36L284.43 422.35L284.87 422.35L285.3 422.35L285.74 422.34L286.17 422.34L286.61 422.33L287.04 422.33L287.48 422.32L287.91 422.31L288.34 422.3L288.78 422.29L289.21 422.28L289.64 422.27L290.07 422.26L290.5 422.24L290.93 422.23L291.36 422.22L291.79 422.2L292.22 422.19L292.65 422.17L293.07 422.15L293.5 422.13L293.92 422.11L294.35 422.1L294.77 422.07L295.2 422.05L295.62 422.03L296.04 422.01L296.47 421.99L296.89 421.96L297.31 421.94L297.73 421.91L298.15 421.88L298.57 421.86L298.98 421.83L299.4 421.8L299.82 421.77L299.89 421.65L299.97 421.52L300.07 421.37L300.17 421.21L300.29 421.03L300.42 420.84L300.55 420.63L300.7 420.41L300.85 420.17L301.01 419.92L301.18 419.65L301.37 419.38L301.55 419.08L301.75 418.78L301.96 418.46L302.17 418.13L302.39 417.79L302.61 417.44L302.85 417.07L303.09 416.69L303.33 416.3L303.59 415.91L303.84 415.49L304.11 415.07L304.38 414.64L304.65 414.2L304.93 413.75L305.21 413.29L305.5 412.82L305.79 412.34L306.09 411.85L306.39 411.35L306.69 410.85L307 410.34L307.31 409.81L307.62 409.29L307.93 408.75L308.25 408.21L308.57 407.66L308.57 407.66L308.78 407.28L309 406.91L309.21 406.54L309.42 406.17L309.63 405.79L309.84 405.42L310.05 405.05L310.26 404.67L310.47 404.3L310.68 403.92L310.88 403.55L311.09 403.17L311.3 402.8L311.5 402.42L311.71 402.04L311.91 401.67L312.11 401.29L312.32 400.91L312.52 400.53L312.72 400.15L312.92 399.77L313.12 399.4L313.32 399.02L313.51 398.64L313.71 398.26L313.91 397.88L314.11 397.49L314.3 397.11L314.5 396.73L314.69 396.35L314.88 395.97L315.07 395.58L315.27 395.2L315.46 394.82L315.65 394.43L315.84 394.05L316.03 393.66L316.22 393.28L316.4 392.89L316.34 392.77L316.27 392.63L316.18 392.48L316.1 392.3L316 392.11L315.89 391.91L315.78 391.69L315.66 391.45L315.53 391.2L315.39 390.93L315.25 390.65L315.1 390.36L314.94 390.05L314.78 389.72L314.6 389.39L314.42 389.04L314.24 388.68L314.04 388.31L313.84 387.92L313.64 387.52L313.42 387.12L313.2 386.7L312.98 386.27L312.74 385.83L312.5 385.38L312.26 384.92L312.01 384.46L311.75 383.98L311.48 383.5L311.22 383L310.94 382.5L310.66 381.99L310.37 381.48L310.08 380.96L309.78 380.43L309.48 379.9L309.17 379.36L308.86 378.81L308.54 378.26L308.47 378.14L308.39 378.01L308.3 377.86L308.2 377.69L308.09 377.51L307.97 377.32L307.84 377.1L307.71 376.87L307.56 376.63L307.41 376.38L307.25 376.11L307.08 375.82L306.9 375.52L306.72 375.21L306.53 374.89L306.32 374.56L306.11 374.21L305.9 373.85L305.67 373.48L305.44 373.1L305.2 372.71L304.96 372.31L304.7 371.9L304.44 371.47L304.17 371.04L303.9 370.6L303.62 370.16L303.33 369.7L303.04 369.24L302.74 368.76L302.43 368.29L302.11 367.8L301.8 367.31L301.47 366.81L301.14 366.3L300.8 365.79L300.46 365.28L300.11 364.76L299.75 364.23L299.34 364.2L298.92 364.17L298.5 364.14L298.08 364.11L297.66 364.08L297.24 364.05L296.82 364.03L296.4 364L295.98 363.98L295.56 363.95L295.13 363.93L294.71 363.91L294.29 363.88L293.86 363.86L293.44 363.84L293.01 363.82L292.59 363.8L292.16 363.79L291.73 363.77L291.31 363.75L290.88 363.74L290.45 363.72L290.02 363.71L289.59 363.7L289.17 363.68L288.74 363.67L288.31 363.66L287.88 363.65L287.45 363.64L287.01 363.64L286.58 363.63L286.15 363.62L285.72 363.62L285.29 363.61L284.85 363.61L284.42 363.61L283.99 363.6L283.55 363.6L283.12 363.6L282.69 363.6L282.25 363.6ZM244.55 405.15L243.96 406.64L243.39 408.12L242.83 409.59L242.29 411.06L241.77 412.52L241.27 413.97L240.78 415.41L240.32 416.84L239.87 418.26L241.38 418.58L242.9 418.88L244.42 419.17L245.95 419.45L247.47 419.71L249 419.95L250.53 420.18L252.07 420.4L253.6 420.6L255.14 420.79L256.68 420.97L256.48 420.64L256.19 420.19L255.83 419.62L255.4 418.94L254.9 418.15L254.35 417.26L253.74 416.28L253.09 415.21L252.41 414.08L251.69 412.87L250.95 411.6L250.77 411.28L250.51 410.82L250.18 410.25L249.79 409.55L249.34 408.76L248.84 407.86L248.3 406.87L247.71 405.8L247.09 404.66L246.45 403.44L245.78 402.16L245.16 403.66L244.55 405.15ZM314.82 412.4L314.33 413.25L313.83 414.1L313.32 414.95L312.82 415.79L312.31 416.64L311.8 417.48L311.28 418.32L310.76 419.16L310.24 419.99L309.72 420.83L311.27 420.64L312.83 420.43L314.39 420.21L315.94 419.98L317.49 419.73L319.03 419.47L320.58 419.19L322.12 418.89L323.66 418.59L325.2 418.26L326.73 417.93L326.24 416.44L325.74 414.96L325.22 413.49L324.69 412.02L324.15 410.56L323.59 409.1L323.02 407.64L322.44 406.2L321.84 404.75L321.23 403.32L320.6 401.88L315.32 411.55L314.82 412.4ZM232.24 370.03L232.12 370.06L231.99 370.1L231.85 370.14L231.69 370.19L231.52 370.24L231.33 370.3L231.13 370.35L230.92 370.42L230.69 370.48L230.45 370.56L230.21 370.63L229.95 370.71L229.68 370.79L229.39 370.88L229.1 370.97L228.81 371.06L228.5 371.16L228.18 371.26L227.86 371.37L227.53 371.48L227.19 371.59L226.84 371.71L226.49 371.83L226.14 371.95L224.26 372.63L222.44 373.32L220.69 374.04L219 374.78L217.37 375.54L215.8 376.31L214.3 377.1L212.87 377.9L211.5 378.71L210.2 379.54L208.98 380.37L207.82 381.21L206.74 382.05L205.73 382.9L204.79 383.75L203.93 384.6L203.15 385.45L202.44 386.3L201.81 387.14L201.26 387.98L200.8 388.82L200.41 389.64L200.11 390.45L199.9 391.25L199.77 392.04L199.72 392.82L199.81 393.32L199.91 393.82L200.03 394.32L200.16 394.81L200.31 395.3L200.47 395.78L200.65 396.25L200.84 396.72L201.04 397.18L201.26 397.63L201.5 398.07L201.74 398.51L202 398.94L202.28 399.36L202.56 399.78L202.86 400.18L203.18 400.58L203.5 400.96L203.84 401.34L204.19 401.7L204.55 402.06L204.92 402.4L205.31 402.73L205.71 403.05L206.11 403.36L206.53 403.66L207.27 404.23L208.01 404.8L208.76 405.35L209.52 405.9L210.28 406.43L211.05 406.95L211.83 407.46L212.62 407.96L213.41 408.45L214.21 408.92L215.01 409.39L215.83 409.84L216.65 410.29L217.47 410.72L218.3 411.14L219.14 411.54L219.98 411.94L220.83 412.32L221.68 412.69L222.54 413.05L223.4 413.4L224.27 413.74L225.15 414.06L226.03 414.37L226.91 414.67L227.8 414.96L227.86 414.98L227.93 415L228.01 415.02L228.1 415.05L228.2 415.09L228.31 415.13L228.44 415.17L228.57 415.21L228.71 415.26L228.86 415.31L229.02 415.36L229.19 415.41L229.37 415.47L229.56 415.53L229.75 415.59L229.95 415.66L230.16 415.72L230.37 415.79L230.59 415.86L230.82 415.93L231.05 416L231.29 416.07L231.54 416.14L231.79 416.22L232.04 416.29L232.3 416.37L232.59 415.45L232.88 414.53L233.18 413.61L233.49 412.7L233.79 411.78L234.1 410.87L234.42 409.96L234.74 409.05L235.07 408.15L235.4 407.24L235.73 406.34L236.07 405.44L236.42 404.54L236.76 403.64L237.12 402.74L237.48 401.85L237.84 400.96L238.2 400.07L238.58 399.18L238.95 398.29L239.33 397.4L239.72 396.52L240.11 395.64L240.5 394.76L240.9 393.88L241.3 393.01L240.9 392.14L240.51 391.28L240.12 390.41L239.74 389.54L239.36 388.67L238.98 387.8L238.61 386.92L238.24 386.05L237.88 385.17L237.52 384.29L237.17 383.41L236.82 382.52L236.48 381.64L236.14 380.75L235.8 379.86L235.47 378.97L235.14 378.08L234.82 377.18L234.51 376.29L234.19 375.39L233.89 374.49L233.58 373.59L233.28 372.69L232.99 371.79L232.7 370.88L232.41 369.97L232.33 370L232.24 370.03ZM333.35 371.88L333.05 372.77L332.75 373.67L332.45 374.56L332.14 375.45L331.83 376.33L331.51 377.22L331.19 378.1L330.87 378.98L330.54 379.86L330.2 380.74L329.86 381.62L329.52 382.5L329.17 383.37L328.82 384.24L328.46 385.11L328.1 385.98L327.73 386.85L327.36 387.71L326.99 388.57L326.61 389.43L326.22 390.29L325.83 391.15L325.44 392L325.04 392.86L325.46 393.72L325.87 394.59L326.27 395.45L326.67 396.33L327.06 397.2L327.45 398.07L327.84 398.95L328.22 399.83L328.6 400.71L328.97 401.59L329.34 402.48L329.7 403.36L330.06 404.25L330.41 405.14L330.76 406.03L331.1 406.93L331.44 407.82L331.77 408.72L332.1 409.62L332.43 410.52L332.75 411.42L333.06 412.32L333.38 413.23L333.68 414.14L333.98 415.05L334.28 415.96L334.4 415.92L334.52 415.89L334.64 415.85L334.76 415.82L334.88 415.78L335 415.74L335.12 415.71L335.24 415.67L335.35 415.63L335.47 415.6L335.59 415.56L335.71 415.52L335.83 415.49L335.95 415.45L336.06 415.41L336.18 415.38L336.3 415.34L336.41 415.3L336.53 415.26L336.65 415.23L336.76 415.19L336.88 415.15L337 415.11L337.11 415.08L337.23 415.04L337.34 415L337.34 415L339.39 414.3L341.38 413.57L343.31 412.81L345.17 412.03L346.96 411.24L348.68 410.42L350.33 409.58L351.91 408.73L353.42 407.87L354.86 406.99L356.21 406.11L357.49 405.21L358.7 404.31L359.82 403.4L360.86 402.49L361.82 401.58L362.69 400.68L363.48 399.77L364.18 398.87L364.79 397.97L365.31 397.08L365.74 396.2L366.07 395.33L366.32 394.48L366.46 393.64L366.51 392.82L366.47 392.04L366.33 391.26L366.11 390.45L365.79 389.64L365.4 388.81L364.91 387.98L364.35 387.14L363.7 386.29L362.97 385.43L362.15 384.58L361.27 383.72L360.3 382.86L359.26 382L358.14 381.15L356.95 380.31L355.68 379.47L354.35 378.63L352.94 377.81L351.47 377L349.93 376.21L348.32 375.43L346.65 374.66L344.91 373.91L343.12 373.19L341.26 372.48L339.34 371.8L339.14 371.73L338.94 371.66L338.73 371.59L338.53 371.52L338.33 371.46L338.12 371.39L337.92 371.32L337.71 371.25L337.51 371.19L337.3 371.12L337.09 371.05L336.88 370.99L336.68 370.92L336.47 370.86L336.26 370.79L336.05 370.73L335.84 370.66L335.63 370.6L335.41 370.53L335.2 370.47L334.99 370.4L334.78 370.34L334.56 370.28L334.35 370.21L334.14 370.15L333.92 370.09L333.64 370.99L333.35 371.88ZM310.21 365.99L310.56 366.55L310.98 367.22L311.46 367.99L311.99 368.85L312.58 369.81L313.2 370.84L313.87 371.95L314.56 373.12L315.28 374.36L315.78 375.21L316.27 376.07L316.75 376.93L317.24 377.78L317.72 378.65L318.19 379.51L318.67 380.37L319.14 381.24L319.6 382.11L320.07 382.98L320.53 383.85L321.13 382.44L321.71 381.04L322.28 379.62L322.84 378.21L323.38 376.78L323.91 375.35L324.43 373.92L324.93 372.48L325.42 371.04L325.9 369.6L326.37 368.14L324.93 367.82L323.48 367.51L322.01 367.22L320.53 366.93L319.03 366.65L317.51 366.39L315.99 366.13L314.44 365.89L312.89 365.66L311.32 365.44L309.74 365.24L309.93 365.55L310.21 365.99ZM253.38 365.64L251.83 365.86L250.3 366.1L248.78 366.35L247.28 366.61L245.78 366.88L244.31 367.16L242.85 367.45L241.4 367.75L239.98 368.06L240.29 369.04L240.64 370.1L241.04 371.26L241.48 372.51L241.96 373.86L242.49 375.29L243.06 376.82L243.67 378.43L244.33 380.15L245.03 381.95L245.77 383.84L246.22 382.97L246.67 382.11L247.13 381.25L247.59 380.38L248.06 379.52L248.52 378.67L249 377.81L249.47 376.96L249.95 376.11L250.43 375.26L250.92 374.41L251.11 374.09L251.37 373.64L251.71 373.07L252.11 372.39L252.58 371.6L253.11 370.72L253.69 369.75L254.32 368.71L255.01 367.6L255.74 366.44L256.51 365.22L254.94 365.43L253.38 365.64ZM320.91 320.18L320.08 320.3L319.19 320.48L318.23 320.72L317.22 321.02L316.15 321.38L315.02 321.79L313.83 322.26L312.57 322.79L311.26 323.38L309.89 324.03L308.46 324.73L306.96 325.5L305.41 326.32L303.8 327.2L302.12 328.13L300.39 329.13L298.6 330.18L296.74 331.3L294.83 332.47L292.86 333.69L292.69 333.84L292.53 333.98L292.36 334.13L292.2 334.27L292.04 334.42L291.87 334.56L291.71 334.71L291.55 334.86L291.38 335L291.22 335.15L291.06 335.3L290.9 335.44L290.74 335.59L290.58 335.74L290.41 335.89L290.25 336.04L290.09 336.19L289.93 336.33L289.77 336.48L289.61 336.63L289.46 336.78L289.3 336.94L289.14 337.09L288.98 337.24L288.82 337.39L288.66 337.54L289.3 338.24L289.94 338.95L290.57 339.65L291.2 340.36L291.83 341.08L292.45 341.79L293.07 342.51L293.68 343.24L294.29 343.96L294.9 344.69L295.5 345.43L296.1 346.16L296.7 346.9L297.29 347.64L297.87 348.39L298.46 349.14L299.04 349.89L299.61 350.64L300.19 351.4L300.75 352.16L301.32 352.92L301.88 353.69L302.43 354.46L302.99 355.23L303.53 356L304.08 356.78L305.03 356.87L305.97 356.96L306.92 357.06L307.86 357.16L308.81 357.27L309.75 357.38L310.69 357.5L311.63 357.62L312.58 357.75L313.52 357.88L314.46 358.02L315.4 358.16L316.34 358.3L317.27 358.45L318.21 358.61L319.15 358.77L320.08 358.93L321.02 359.1L321.95 359.28L322.88 359.46L323.82 359.64L324.75 359.83L325.68 360.02L326.61 360.22L327.54 360.42L328.46 360.63L328.47 360.59L328.49 360.53L328.5 360.46L328.52 360.39L328.54 360.31L328.56 360.22L328.58 360.12L328.61 360.01L328.64 359.9L328.67 359.77L328.7 359.65L328.73 359.51L328.76 359.37L328.8 359.22L328.83 359.06L328.87 358.9L328.91 358.73L328.95 358.56L328.99 358.38L329.03 358.2L329.07 358.01L329.11 357.82L329.15 357.62L329.2 357.42L329.24 357.22L329.28 357.01L329.7 354.88L330.06 352.79L330.37 350.75L330.62 348.75L330.83 346.8L330.98 344.9L331.08 343.05L331.13 341.25L331.14 339.51L331.09 337.83L331.01 336.22L330.87 334.66L330.69 333.17L330.47 331.74L330.2 330.39L329.89 329.1L329.54 327.89L329.14 326.76L328.71 325.7L328.24 324.72L327.73 323.83L327.18 323.02L326.6 322.29L325.98 321.66L325.33 321.11L324.64 320.66L324.17 320.43L323.64 320.26L323.04 320.16L322.39 320.1L321.68 320.11L320.91 320.18ZM243.59 320.01L242.73 320.22L241.93 320.52L241.2 320.89L240.55 321.31L239.94 321.83L239.35 322.42L238.8 323.1L238.29 323.86L237.81 324.7L237.36 325.61L236.95 326.6L236.58 327.66L236.25 328.79L235.95 329.99L235.69 331.25L235.47 332.59L235.3 333.98L235.16 335.44L235.07 336.95L235.02 338.52L235.01 340.15L235.05 341.83L235.13 343.56L235.26 345.34L235.43 347.17L235.66 349.05L235.93 350.97L236.25 352.93L236.62 354.93L236.66 355.15L236.71 355.37L236.75 355.58L236.79 355.8L236.84 356.02L236.88 356.24L236.93 356.45L236.97 356.67L237.02 356.89L237.07 357.1L237.11 357.32L237.16 357.53L237.21 357.75L237.26 357.97L237.31 358.18L237.36 358.4L237.41 358.61L237.46 358.83L237.51 359.05L237.56 359.26L237.61 359.48L237.66 359.69L237.71 359.91L237.77 360.12L237.82 360.34L237.87 360.55L238.8 360.35L239.73 360.15L240.65 359.95L241.58 359.76L242.51 359.58L243.44 359.4L244.37 359.22L245.31 359.05L246.24 358.89L247.17 358.72L248.11 358.57L249.04 358.41L249.98 358.27L250.92 358.12L251.85 357.98L252.79 357.85L253.73 357.72L254.67 357.6L255.61 357.48L256.55 357.36L257.49 357.25L258.43 357.15L259.38 357.04L260.32 356.95L261.26 356.86L262.21 356.77L262.76 355.99L263.31 355.22L263.87 354.45L264.43 353.68L265 352.91L265.57 352.15L266.14 351.39L266.72 350.64L267.3 349.88L267.88 349.13L268.47 348.39L269.06 347.64L269.66 346.9L270.26 346.16L270.86 345.43L271.47 344.69L272.08 343.96L272.69 343.24L273.31 342.52L273.93 341.8L274.56 341.08L275.19 340.37L275.82 339.66L276.46 338.95L277.1 338.24L277.74 337.54L277.64 337.44L277.53 337.34L277.43 337.24L277.32 337.14L277.22 337.04L277.11 336.94L277 336.84L276.9 336.75L276.79 336.65L276.69 336.55L276.58 336.45L276.48 336.35L276.37 336.26L276.27 336.16L276.16 336.06L276.06 335.97L275.95 335.87L275.85 335.77L275.74 335.68L275.64 335.58L275.53 335.49L275.43 335.39L275.32 335.3L275.22 335.2L275.11 335.11L275.01 335.02L273.37 333.59L271.74 332.24L270.12 330.95L268.52 329.73L266.93 328.58L265.36 327.5L263.81 326.49L262.28 325.55L260.78 324.68L259.3 323.87L257.85 323.14L256.44 322.48L255.06 321.89L253.71 321.38L252.4 320.93L251.14 320.56L249.91 320.26L248.73 320.03L247.6 319.88L246.52 319.8L245.49 319.79L244.51 319.86L243.59 320.01ZM281.22 345.3L280.22 346.42L279.23 347.56L278.25 348.72L277.26 349.9L276.28 351.1L275.3 352.32L274.32 353.55L273.35 354.8L272.38 356.06L273.13 356.05L274.17 356.02L275.5 355.98L277.09 355.94L278.93 355.89L280.98 355.86L283.24 355.84L285.69 355.85L288.3 355.88L291.06 355.95L293.94 356.07L293.02 354.85L292.08 353.63L291.14 352.43L290.19 351.23L289.22 350.04L288.24 348.87L287.26 347.7L286.26 346.54L285.25 345.39L284.23 344.24L283.2 343.11L282.21 344.2L281.22 345.3Z" id="atom"></path>
  </defs>
  <g>
    <g>
      <g>
        <g>
          <use xlink:href="#circle" opacity="1" fill="#E6E885"></use>
          <g clip-path="url(#circleClip)">
            <use xlink:href="#circle" opacity="1" fill-opacity="0" stroke="#023F2B" stroke-width="38" stroke-opacity="1"></use>
          </g>
        </g>
        <g>
          <use xlink:href="#cup" opacity="1" fill="#023F2B" fill-opacity="1"></use>
        </g>
        <g>
          <g>
            <use xlink:href="#small_steam" opacity="1" fill="#8DAF66" fill-opacity="1"></use>
          </g>
          <g>
            <use xlink:href="#large_steam" opacity="1" fill="#44764A" fill-opacity="1"></use>
          </g>
        </g>
        <g>
          <use xlink:href="#atom" opacity="1" fill="#8DAF66" fill-opacity="1"></use>
        </g>
      </g>
    </g>
  </g>
</svg>
